<?xml version="1.0" encoding="utf-8"?>
<!-- Generator: Adobe Illustrator 18.1.1, SVG Export Plug-In . SVG Version: 6.00 Build 0)  -->
<svg version="1.1" baseProfile="basic" id="Layer_1"
	 xmlns="http://www.w3.org/2000/svg" xmlns:xlink="http://www.w3.org/1999/xlink" x="0px" y="0px" viewBox="0 0 3000 3000"
	 xml:space="preserve">
<g>
	<circle fill="none" stroke="#ED1C24" stroke-width="200" stroke-miterlimit="10" cx="1500" cy="1500.1" r="1107.1"/>
	<g>
		<g>
			
				<rect x="1711.1" y="779.3" transform="matrix(0.9104 0.4138 -0.4138 0.9104 543.696 -641.003)" fill="#24B063" width="80.5" height="310.2"/>
			
				<ellipse transform="matrix(0.9104 0.4138 -0.4138 0.9104 491.0187 -680.2225)" fill="#24B063" cx="1815.6" cy="793.2" rx="106.2" ry="73"/>
		</g>
		<g>
			
				<rect x="1412.4" y="818.7" transform="matrix(0.9953 -9.678963e-002 9.678963e-002 0.9953 -82.0736 143.5005)" fill="#209554" width="51.4" height="198.1"/>
			
				<ellipse transform="matrix(0.9953 -9.678963e-002 9.678963e-002 0.9953 -72.5758 142.1096)" fill="#209554" cx="1428.5" cy="819.1" rx="67.8" ry="46.6"/>
		</g>
		<g>
			
				<rect x="939" y="1163.5" transform="matrix(0.4138 -0.9104 0.9104 0.4138 -583.879 1618.2618)" fill="#209554" width="51.4" height="198.1"/>
			
				<ellipse transform="matrix(0.4138 -0.9104 0.9104 0.4138 -599.4202 1512.1389)" fill="#209554" cx="874.5" cy="1221.5" rx="67.8" ry="46.6"/>
		</g>
		<g>
			
				<rect x="1000.9" y="1745.9" transform="matrix(-0.5815 -0.8136 0.8136 -0.5815 122.5902 3752.8845)" fill="#209554" width="51.4" height="198.1"/>
			
				<ellipse transform="matrix(-0.5815 -0.8136 0.8136 -0.5815 -51.7223 3778.4119)" fill="#209554" cx="946" cy="1902.5" rx="67.8" ry="46.6"/>
		</g>
		<g>
			
				<rect x="1536.2" y="1983.4" transform="matrix(-0.9953 9.678962e-002 -9.678962e-002 -0.9953 3318.0601 4004.0051)" fill="#209554" width="51.4" height="198.1"/>
			
				<ellipse transform="matrix(-0.9953 9.678962e-002 -9.678962e-002 -0.9953 3346.7336 4199.8003)" fill="#209554" cx="1571.5" cy="2181.1" rx="67.8" ry="46.6"/>
		</g>
		<g>
			
				<rect x="2009.6" y="1638.6" transform="matrix(-0.4138 0.9104 -0.9104 -0.4138 4459.4829 603.912)" fill="#209554" width="51.4" height="198.1"/>
			
				<ellipse transform="matrix(-0.4138 0.9104 -0.9104 -0.4138 4624.2979 579.7756)" fill="#209554" cx="2125.5" cy="1778.7" rx="67.8" ry="46.6"/>
		</g>
		<g>
			
				<rect x="1947.7" y="1056.2" transform="matrix(0.5815 0.8136 -0.8136 0.5815 1765.8187 -1121.97)" fill="#209554" width="51.4" height="198.1"/>
			
				<ellipse transform="matrix(0.5815 0.8136 -0.8136 0.5815 1752.6865 -1211.6422)" fill="#209554" cx="2054" cy="1097.7" rx="67.8" ry="46.6"/>
		</g>
		<g>
			
				<rect x="1095.5" y="844.5" transform="matrix(0.8136 -0.5815 0.5815 0.8136 -369.4704 846.7919)" fill="#24B063" width="80.5" height="310.2"/>
			
				<ellipse transform="matrix(0.8136 -0.5815 0.5815 0.8136 -312.9115 770.8253)" fill="#24B063" cx="1045.6" cy="873.4" rx="106.2" ry="73"/>
		</g>
		<g>
			
				<rect x="844.2" y="1410.1" transform="matrix(-9.678963e-002 -0.9953 0.9953 -9.678963e-002 -587.8649 2597.0146)" fill="#24B063" width="80.5" height="310.2"/>
			
				<ellipse transform="matrix(-9.678963e-002 -0.9953 0.9953 -9.678963e-002 -772.1204 2459.8323)" fill="#24B063" cx="730.1" cy="1580.3" rx="106.2" ry="73"/>
		</g>
		<g>
			
				<rect x="1208.4" y="1910.7" transform="matrix(-0.9104 -0.4138 0.4138 -0.9104 1530.4435 4463.0801)" fill="#24B063" width="80.5" height="310.2"/>
			
				<ellipse transform="matrix(-0.9104 -0.4138 0.4138 -0.9104 1349.3954 4706.2534)" fill="#24B063" cx="1184.4" cy="2207" rx="106.2" ry="73"/>
		</g>
		<g>
			
				<rect x="1824" y="1845.5" transform="matrix(-0.8136 0.5815 -0.5815 -0.8136 4544.1689 2544.2856)" fill="#24B063" width="80.5" height="310.2"/>
			
				<ellipse transform="matrix(-0.8136 0.5815 -0.5815 -0.8136 4781.1016 2720.6875)" fill="#24B063" cx="1954.4" cy="2126.8" rx="106.2" ry="73"/>
		</g>
		<g>
			
				<rect x="2075.3" y="1279.9" transform="matrix(9.678967e-002 0.9953 -0.9953 9.678967e-002 3339.0271 -809.5752)" fill="#24B063" width="80.5" height="310.2"/>
			
				<ellipse transform="matrix(9.678967e-002 0.9953 -0.9953 9.678967e-002 3463.5159 -976.7816)" fill="#24B063" cx="2269.9" cy="1419.9" rx="106.2" ry="73"/>
		</g>
		<circle fill="#66C07B" cx="1486" cy="1493.8" r="563.6"/>
		<circle fill="#22A35A" cx="1429.3" cy="1303.7" r="79.9"/>
		
			<ellipse transform="matrix(0.9104 0.4138 -0.4138 0.9104 762.1545 -559.5193)" fill="#22A35A" cx="1672.5" cy="1479.4" rx="68" ry="59.3"/>
		
			<ellipse transform="matrix(0.9104 0.4138 -0.4138 0.9104 674.457 -632.9838)" fill="#22A35A" cx="1798.2" cy="1240.2" rx="52.5" ry="45.9"/>
		
			<ellipse transform="matrix(0.9104 0.4138 -0.4138 0.9104 600.5767 -537.8087)" fill="#22A35A" cx="1541.6" cy="1117.3" rx="75" ry="60.8"/>
		<circle fill="#22A35A" cx="1132.6" cy="1438.3" r="85.5"/>
		<circle fill="#22A35A" cx="1256" cy="1067.8" r="41"/>
		<circle fill="#22A35A" cx="1212.1" cy="1205" r="86.9"/>
		<circle fill="#22A35A" cx="1455.8" cy="1560.3" r="60.8"/>
		<circle fill="#22A35A" cx="1694.5" cy="1735.7" r="63.2"/>
		<circle fill="#22A35A" cx="1878.9" cy="1482.8" r="82.3"/>
		<circle fill="#22A35A" cx="1629.7" cy="1299.4" r="45.5"/>
		
			<ellipse transform="matrix(0.9104 0.4138 -0.4138 0.9104 616.2164 -619.207)" fill="#22A35A" cx="1737.3" cy="1112.7" rx="55.7" ry="39.7"/>
		
			<ellipse transform="matrix(0.9104 0.4138 -0.4138 0.9104 569.8066 -580.5157)" fill="#22A35A" cx="1624.8" cy="1024.9" rx="37.5" ry="20.3"/>
		
			<ellipse transform="matrix(0.9104 0.4138 -0.4138 0.9104 559.2142 -491.2231)" fill="#22A35A" cx="1413.4" cy="1045.1" rx="41.5" ry="27.6"/>
		
			<ellipse transform="matrix(0.9104 0.4138 -0.4138 0.9104 602.9576 -465.4543)" fill="#22A35A" cx="1375.8" cy="1159" rx="20.4" ry="22.8"/>
		
			<ellipse transform="matrix(0.9104 0.4138 -0.4138 0.9104 739.7597 -405.213)" fill="#22A35A" cx="1305.2" cy="1504.9" rx="29.7" ry="22.4"/>
		
			<ellipse transform="matrix(0.9104 0.4138 -0.4138 0.9104 772.5524 -359.9927)" fill="#22A35A" cx="1217.2" cy="1603.2" rx="39.4" ry="40.3"/>
		
			<ellipse transform="matrix(0.9104 0.4138 -0.4138 0.9104 864.1726 -414.4142)" fill="#22A35A" cx="1388.6" cy="1787.4" rx="63" ry="48.9"/>
		
			<ellipse transform="matrix(0.9104 0.4138 -0.4138 0.9104 847.015 -483.7918)" fill="#22A35A" cx="1540.2" cy="1713.1" rx="23.8" ry="33.5"/>
		
			<ellipse transform="matrix(0.9104 0.4138 -0.4138 0.9104 872.8678 -625.095)" fill="#22A35A" cx="1879.2" cy="1702.2" rx="44.6" ry="58"/>
		
			<ellipse transform="matrix(0.9104 0.4138 -0.4138 0.9104 923.0166 -513.4977)" fill="#22A35A" cx="1646.7" cy="1873.7" rx="62.6" ry="28.3"/>
		
			<ellipse transform="matrix(0.9104 0.4138 -0.4138 0.9104 712.3406 -685.7303)" fill="#22A35A" cx="1938.9" cy="1301.3" rx="42.7" ry="48.6"/>
		
			<ellipse transform="matrix(0.9104 0.4138 -0.4138 0.9104 835.2163 -672.5504)" fill="#22A35A" cx="1969.9" cy="1591.5" rx="20.9" ry="21"/>
		
			<ellipse transform="matrix(0.9104 0.4138 -0.4138 0.9104 832.5649 -590.1058)" fill="#22A35A" cx="1778.3" cy="1626.6" rx="22.1" ry="20.5"/>
		
			<ellipse transform="matrix(0.9104 0.4138 -0.4138 0.9104 809.3735 -532.022)" fill="#22A35A" cx="1632.7" cy="1602.1" rx="38.3" ry="32.7"/>
		
			<ellipse transform="matrix(0.9104 0.4138 -0.4138 0.9104 731.386 -512.678)" fill="#22A35A" cx="1549" cy="1431.8" rx="39.4" ry="28.8"/>
		
			<ellipse transform="matrix(0.9104 0.4138 -0.4138 0.9104 782.2605 -295.6281)" fill="#22A35A" cx="1073.5" cy="1657.8" rx="55.9" ry="36.5"/>
		
			<ellipse transform="matrix(0.9104 0.4138 -0.4138 0.9104 859.5397 -359.45)" fill="#22A35A" cx="1259.4" cy="1804.2" rx="27.4" ry="40.9"/>
		
			<ellipse transform="matrix(0.9104 0.4138 -0.4138 0.9104 845.407 -318.9669)" fill="#22A35A" cx="1158.9" cy="1791.8" rx="44.1" ry="30.3"/>
		
			<ellipse transform="matrix(0.9104 0.4138 -0.4138 0.9104 916.7409 -384.5122)" fill="#22A35A" cx="1345.9" cy="1923.7" rx="45.5" ry="32.1"/>
		
			<ellipse transform="matrix(0.9104 0.4138 -0.4138 0.9104 945.6655 -455.2263)" fill="#22A35A" cx="1523.6" cy="1955.1" rx="45.8" ry="22"/>
		<circle fill="#22A35A" cx="1516" cy="1858.9" r="27.4"/>
		<circle fill="#22A35A" cx="1404" cy="1655.7" r="34.5"/>
		<circle fill="#22A35A" cx="1315.2" cy="1681.4" r="27.4"/>
		<circle fill="#22A35A" cx="997.6" cy="1528.6" r="25.6"/>
		<circle fill="#22A35A" cx="1057" cy="1298.7" r="38.6"/>
		<circle fill="#22A35A" cx="1289.3" cy="1398.5" r="33.2"/>
		<circle fill="#22A35A" cx="1768.3" cy="1370.1" r="41.9"/>
		<circle fill="#22A35A" cx="1831.5" cy="1845.6" r="24.6"/>
		<circle fill="#22A35A" cx="1775.1" cy="1910.1" r="17.9"/>
		<circle fill="#22A35A" cx="1763.4" cy="1836.4" r="26.6"/>
		<circle fill="#22A35A" cx="1630.6" cy="1979.6" r="25.9"/>
		<circle fill="#22A35A" cx="1426.4" cy="2020.9" r="23.1"/>
		<circle fill="#22A35A" cx="1215.6" cy="1925.1" r="23.1"/>
		<circle fill="#22A35A" cx="1055.3" cy="1792.8" r="24.9"/>
		
			<ellipse transform="matrix(-0.9104 -0.4138 0.4138 -0.9104 3111.2917 3014.3774)" fill="#22A35A" cx="1882.1" cy="1170.2" rx="31.2" ry="25.8"/>
	</g>
	
		<rect x="1371.3" y="400.7" transform="matrix(0.7071 0.7071 -0.7071 0.7071 1497.9966 -607.1358)" fill="#ED1C24" width="221.2" height="2208"/>
</g>
</svg>
